<?xml version="1.0" standalone="no"?>
<!DOCTYPE svg PUBLIC "-//W3C//DTD SVG 20010904//EN"
 "http://www.w3.org/TR/2001/REC-SVG-20010904/DTD/svg10.dtd">
<svg version="1.0" xmlns="http://www.w3.org/2000/svg"
 width="1280.000000pt" height="853.000000pt" viewBox="0 0 1280.000000 853.000000"
 preserveAspectRatio="xMidYMid meet">

<g transform="translate(0.000000,853.000000) scale(0.100000,-0.100000)"
fill="#000000" stroke="none">
<path d="M0 5353 l0 -3178 98 -24 c105 -25 281 -79 297 -91 6 -4 30 -15 55
-24 25 -10 77 -33 115 -51 39 -18 81 -37 95 -44 33 -15 58 -30 100 -64 51 -40
45 -37 170 -117 63 -40 126 -84 140 -96 14 -12 93 -63 176 -112 173 -104 317
-204 394 -275 14 -12 50 -41 80 -64 30 -23 66 -52 79 -64 13 -12 54 -45 91
-73 95 -73 331 -267 486 -401 39 -33 90 -76 115 -96 24 -21 62 -54 84 -75 22
-21 92 -79 156 -130 64 -51 161 -132 215 -181 54 -49 127 -112 162 -141 l63
-52 2622 0 c2255 0 2619 2 2601 14 -21 15 -25 17 -329 167 -104 51 -201 101
-215 110 -14 9 -59 29 -100 44 -41 16 -82 35 -91 42 -8 7 -19 13 -23 13 -4 0
-31 11 -61 24 -89 41 -379 134 -483 156 -247 50 -564 73 -720 51 -48 -7 -121
-17 -162 -22 -98 -13 -162 -31 -290 -82 -140 -55 -289 -133 -400 -210 -176
-121 -348 -222 -395 -231 -11 -2 -33 -9 -48 -15 -74 -29 -74 -7 1 42 74 50 90
62 255 187 227 173 269 202 384 268 211 120 395 172 713 198 151 13 214 14
345 5 141 -10 346 -41 461 -70 121 -31 159 -42 254 -75 58 -19 152 -52 210
-71 104 -36 236 -97 380 -176 41 -23 98 -53 125 -68 28 -15 84 -48 125 -73 41
-25 80 -47 85 -49 6 -2 56 -35 113 -73 85 -56 108 -67 130 -61 77 19 79 18 98
-14 l18 -31 2013 0 2013 0 0 2440 c0 1342 -4 2440 -8 2440 -5 0 -14 -10 -21
-22 -29 -55 -100 -161 -133 -200 -13 -14 -30 -36 -38 -48 -8 -13 -25 -34 -37
-48 -13 -14 -23 -28 -23 -31 0 -3 -13 -19 -28 -36 -15 -16 -62 -75 -105 -131
-42 -55 -83 -107 -92 -114 -8 -7 -15 -17 -15 -22 0 -5 -9 -19 -21 -31 -11 -12
-39 -47 -62 -77 -23 -30 -60 -78 -82 -106 -22 -28 -53 -68 -70 -89 -16 -21
-35 -43 -40 -49 -6 -6 -33 -40 -60 -76 -28 -35 -58 -74 -69 -85 -10 -11 -55
-65 -99 -120 -100 -123 -106 -130 -135 -163 -13 -15 -62 -79 -110 -142 -48
-63 -94 -123 -103 -135 -72 -88 -187 -235 -201 -255 -9 -14 -29 -39 -45 -57
-15 -17 -50 -60 -78 -94 -27 -34 -83 -100 -122 -146 -40 -47 -73 -87 -73 -91
0 -4 -17 -26 -38 -48 -40 -45 -50 -56 -102 -124 -19 -25 -37 -47 -40 -50 -3
-3 -18 -25 -35 -50 -16 -25 -43 -63 -59 -84 -30 -39 -96 -144 -96 -153 0 -5
-25 -61 -87 -193 -47 -101 -56 -145 -68 -345 -4 -55 -9 -108 -11 -117 -6 -21
-34 -24 -34 -4 0 8 -9 18 -20 21 -11 3 -20 11 -20 16 0 10 -58 100 -70 109
-45 34 -40 226 11 410 34 122 261 516 365 633 6 7 42 53 79 102 38 50 96 124
130 165 33 41 83 104 110 140 27 36 55 72 62 80 92 116 223 284 243 310 14 18
30 38 35 44 58 61 524 729 533 764 2 7 8 9 14 5 7 -4 9 0 5 10 -3 9 -2 19 4
22 10 7 99 140 99 150 0 3 17 29 38 58 20 29 42 60 47 69 6 9 36 58 69 108 32
50 56 93 54 95 -2 3 -92 -4 -199 -14 -107 -11 -228 -21 -269 -22 -69 -2 -75 0
-72 17 8 42 64 163 79 168 12 5 14 1 10 -16 -3 -13 -9 -47 -13 -77 l-7 -53 29
5 c16 3 70 9 119 12 101 7 273 23 322 31 28 4 36 13 54 52 11 26 32 70 46 99
13 28 25 57 27 65 1 7 6 20 11 28 25 40 17 49 -43 44 -68 -5 -45 11 30 21 40
5 46 9 43 27 -3 11 2 33 11 49 8 16 24 84 35 151 12 68 30 139 40 160 l19 37
-35 33 c-23 20 -35 39 -33 53 7 49 148 2 245 -82 32 -28 76 -66 98 -84 22 -19
42 -36 45 -39 3 -3 18 -16 33 -29 l27 -24 0 1631 0 1632 -6400 0 -6400 0 0
-3177z m4892 3094 c58 -25 27 -49 -65 -50 -76 -1 -93 15 -53 50 31 26 59 27
118 0z m-1960 -989 c22 -17 26 -51 9 -71 -12 -16 -15 -16 -42 0 -31 18 -38 50
-17 71 15 15 30 15 50 0z m675 -981 c31 -33 103 -174 103 -200 0 -12 15 -46
33 -76 55 -92 60 -104 72 -172 8 -52 8 -71 -1 -84 -19 -26 -53 -2 -119 83 -51
65 -57 77 -52 110 5 42 -13 84 -49 116 -15 14 -30 48 -44 101 -23 89 -25 117
-10 146 12 22 30 16 67 -24z m3268 -827 c3 -5 1 -10 -4 -10 -6 0 -11 5 -11 10
0 6 2 10 4 10 3 0 8 -4 11 -10z m3081 -206 c27 -47 102 -247 184 -494 32 -97
36 -168 11 -193 -18 -18 -26 1 -27 61 0 42 -15 98 -53 207 -96 275 -125 350
-153 398 -15 26 -28 55 -28 63 0 31 35 8 66 -42z m-6896 -14 c0 -14 -15 -19
-29 -10 -17 10 -5 31 14 23 8 -3 15 -9 15 -13z m376 -85 c8 -44 0 -65 -25 -65
-23 0 -38 19 -24 29 6 3 14 21 18 39 9 42 22 41 31 -3z m3814 13 c0 -6 -7 -7
-16 -4 -9 3 -21 6 -27 6 -7 0 -7 4 2 9 16 10 41 4 41 -11z m-300 -125 c0 -54
-3 -73 -10 -63 -15 23 -10 140 6 140 2 0 4 -35 4 -77z m-440 41 c0 -10 -14
-14 -50 -14 -54 0 -57 2 -36 22 18 18 86 11 86 -8z m318 -22 c2 -7 -6 -12 -17
-12 -21 0 -27 11 -14 24 9 9 26 2 31 -12z m3646 -33 c3 -17 6 -59 6 -93 0 -59
-4 -69 -76 -197 -119 -209 -216 -372 -236 -395 -16 -18 -18 -40 -18 -175 0
-85 -5 -345 -11 -579 l-11 -425 -48 -85 c-26 -47 -89 -164 -139 -260 -51 -96
-97 -182 -102 -190 -5 -8 -20 -36 -31 -62 -25 -54 -35 -59 -44 -24 -4 18 9 51
50 125 31 56 56 103 56 105 0 3 28 55 63 118 146 263 151 273 154 373 1 50 8
281 14 515 5 234 15 458 20 499 9 72 35 128 134 293 5 9 17 29 26 45 8 15 46
81 83 146 l68 117 -7 59 c-5 45 -3 66 9 90 21 39 32 39 40 0z m-4344 -19 c0
-5 -2 -10 -4 -10 -3 0 -8 5 -11 10 -3 6 -1 10 4 10 6 0 11 -4 11 -10z m-3350
-64 c0 -13 -106 -106 -121 -106 -16 0 -16 30 -1 47 53 57 122 91 122 59z
m2015 4 c4 -6 -7 -10 -27 -9 -27 0 -30 2 -13 9 27 12 33 12 40 0z m-1424 -31
c6 -13 10 -54 7 -101 -4 -86 -11 -98 -63 -98 -17 0 -37 -6 -43 -12 -10 -10
-15 -10 -20 -1 -4 6 -18 13 -32 14 -21 3 -26 10 -28 41 -3 37 -3 38 28 31 l32
-6 -7 77 -7 76 60 0 c52 0 63 -3 73 -21z m6181 -7 c40 -16 95 -37 121 -46 42
-16 51 -25 77 -77 35 -68 38 -99 11 -99 -13 0 -26 17 -44 58 l-26 57 -113 42
-114 43 -98 -15 c-129 -19 -136 -19 -136 4 0 28 14 34 110 47 126 17 133 16
212 -14z m-6455 12 c-3 -3 -12 -4 -19 -1 -8 3 -5 6 6 6 11 1 17 -2 13 -5z
m407 -9 c9 -9 17 -11 21 -5 9 15 54 12 71 -4 21 -21 17 -40 -13 -76 -25 -31
-26 -33 -9 -46 29 -21 14 -37 -37 -39 l-47 -2 -2 41 c-2 54 -1 67 7 93 6 18 4
21 -14 16 -14 -4 -21 -1 -21 9 0 30 21 36 44 13z m4436 -18 c0 -18 -2 -19 -10
-7 -13 20 -13 43 0 35 6 -3 10 -16 10 -28z m-4892 16 c-4 -16 27 -53 44 -53
21 0 21 -1 6 -35 -12 -27 -17 -29 -34 -17 -23 16 -43 112 -23 112 5 0 8 -3 7
-7z m1997 -33 c10 0 12 -10 8 -37 -7 -46 -19 -61 -35 -45 -7 7 -22 12 -34 12
-14 0 -25 8 -29 21 -4 11 -5 22 -3 23 32 24 55 35 66 31 8 -3 20 -5 27 -5z
m-194 -12 c26 17 47 1 24 -18 -21 -17 -19 -43 5 -65 24 -21 27 -55 5 -55 -8 0
-23 9 -32 20 -10 11 -28 20 -41 20 -19 0 -23 4 -17 18 10 21 9 40 0 70 -7 22
-6 23 14 11 17 -12 25 -12 42 -1z m-476 -18 c-3 -5 -10 -10 -16 -10 -5 0 -9 5
-9 10 0 6 7 10 16 10 8 0 12 -4 9 -10z m2505 -102 c0 -61 -2 -109 -4 -107 -14
13 -13 219 0 219 2 0 4 -50 4 -112z m-2360 87 c0 -10 -11 -15 -35 -15 -33 0
-43 8 -28 23 13 14 63 7 63 -8z m-890 -10 c0 -8 -4 -15 -10 -15 -5 0 -10 7
-10 15 0 8 5 15 10 15 6 0 10 -7 10 -15z m1920 -44 c0 -11 -4 -10 -15 5 -8 10
-14 26 -14 34 0 11 3 10 14 -4 8 -11 15 -27 15 -35z m230 29 c58 -6 120 -18
138 -27 19 -8 89 -24 155 -34 156 -25 156 -25 149 -51 -3 -13 1 -24 12 -30 12
-7 15 -21 14 -52 l-3 -43 -39 9 c-21 5 -85 29 -141 53 -57 25 -110 45 -120 45
-30 0 -115 42 -108 53 8 13 12 50 5 42 -2 -2 -11 2 -19 10 -16 17 -60 5 -82
-23 -12 -15 -13 -14 -7 11 6 25 4 28 -16 25 -13 -2 -22 -9 -20 -17 2 -10 -8
-12 -45 -6 -46 7 -83 28 -83 48 0 10 21 9 210 -13z m6305 -19 c-6 -5 -21 -11
-35 -13 -22 -3 -37 -19 -76 -84 -7 -11 -15 -16 -19 -12 -4 3 5 24 19 45 l26
38 -27 6 c-28 6 -28 6 7 12 94 18 116 19 105 8z m-6905 -21 c0 -11 -4 -20 -10
-20 -5 0 -10 9 -10 20 0 11 5 20 10 20 6 0 10 -9 10 -20z m358 -78 c53 -91 66
-126 36 -101 -8 7 -22 26 -31 42 -11 22 -18 26 -26 18 -18 -18 -26 -13 -38 30
-9 30 -10 42 -1 48 7 4 8 12 2 21 -12 18 -13 30 -2 30 4 0 31 -40 60 -88z
m6732 76 c0 -3 -23 -10 -52 -15 -28 -4 -53 -14 -56 -21 -3 -9 6 -11 37 -6 26
4 41 3 41 -4 0 -11 -107 -29 -116 -19 -3 2 4 20 15 38 19 32 23 34 76 34 30 0
55 -3 55 -7z m-9185 -19 c9 -13 6 -15 -25 -23 -14 -3 -20 -3 -13 0 7 3 9 12 6
20 -6 16 22 20 32 3z m4165 -50 c-43 -12 -54 -11 -41 5 7 8 22 11 39 8 l27 -6
-25 -7z m-3910 -6 c0 -12 -3 -14 -8 -7 -4 7 -18 14 -32 17 -21 4 -20 4 8 6 24
1 32 -3 32 -16z m-250 -3 c0 -5 -5 -10 -11 -10 -5 0 -7 5 -4 10 3 6 8 10 11
10 2 0 4 -4 4 -10z m4849 -27 c-1 -34 -2 -35 -9 -13 -11 36 -11 50 0 50 6 0
10 -17 9 -37z m-4970 -35 c10 -28 3 -58 -14 -58 -30 0 -75 13 -75 22 0 5 8 20
18 33 22 31 60 33 71 3z m6816 10 c7 -23 26 -685 19 -701 -13 -36 -31 -17 -37
41 -10 87 -21 638 -14 656 8 19 26 21 32 4z m-6605 -29 c50 15 82 14 106 -4
17 -13 13 -14 -52 -15 -39 0 -99 -3 -133 -6 -60 -7 -61 -7 -61 18 l0 26 51
-15 c41 -12 60 -13 89 -4z m1719 -24 c55 -40 61 -49 61 -80 0 -26 4 -35 18
-36 9 -1 34 -2 55 -3 29 -2 45 4 75 29 56 48 115 85 133 85 22 0 27 -24 23
-107 -4 -84 -5 -92 -27 -123 -9 -13 -17 -32 -17 -41 0 -25 -42 -99 -62 -110
-9 -5 -22 -15 -30 -21 -7 -7 -40 -27 -73 -44 -100 -52 -137 -74 -180 -109 -22
-19 -62 -43 -88 -54 -26 -11 -47 -25 -47 -31 0 -5 -5 -10 -11 -10 -5 0 -7 5
-3 12 4 7 -10 1 -32 -12 -21 -13 -52 -31 -69 -40 -16 -8 -37 -20 -45 -25 -8
-5 -19 -10 -25 -11 -5 -1 -41 -17 -80 -35 -38 -18 -81 -34 -95 -36 -14 -3 -26
-8 -28 -14 -2 -5 -12 -9 -22 -9 -10 0 -22 -4 -25 -10 -3 -5 -16 -10 -29 -10
-12 0 -26 -3 -30 -7 -4 -4 -35 -17 -69 -29 -722 -248 -789 -273 -897 -329 -36
-19 -85 -44 -110 -56 -25 -12 -47 -25 -50 -28 -3 -4 -14 -14 -26 -22 -123 -84
-296 -266 -373 -392 -13 -21 -28 -43 -35 -50 -7 -6 -15 -19 -19 -27 -12 -23
-30 -53 -53 -85 -44 -61 -128 -260 -120 -282 3 -7 0 -13 -6 -13 -6 0 -1 -11
11 -24 12 -13 21 -32 19 -42 -2 -14 4 -20 25 -22 26 -3 27 -2 18 17 -14 25
-14 41 -1 21 8 -12 10 -11 10 6 0 27 40 41 41 16 0 -14 2 -14 6 -2 4 8 13 21
22 28 14 12 14 12 -3 4 -10 -5 -28 -7 -38 -4 -17 4 -19 10 -13 50 4 25 10 52
14 61 4 9 19 41 33 71 52 114 70 147 113 205 24 33 61 86 82 117 21 31 44 57
51 57 6 1 12 7 12 14 0 11 139 144 146 140 2 -1 15 8 28 21 35 31 173 116 191
116 8 0 36 13 62 29 47 28 80 40 248 94 44 14 88 29 98 32 12 5 17 2 17 -9 0
-9 -7 -16 -15 -16 -14 0 -53 -18 -65 -30 -3 -3 -29 -16 -57 -30 -29 -14 -53
-30 -53 -37 0 -6 -9 -15 -20 -18 -23 -7 -27 -25 -6 -25 8 0 38 13 67 28 30 15
113 45 184 66 72 21 182 55 245 76 63 21 138 41 165 45 28 4 94 18 149 31 54
14 103 23 110 20 6 -2 3 -5 -7 -5 -10 -1 -93 -26 -183 -56 -329 -110 -636
-246 -759 -337 -77 -57 -242 -214 -233 -223 3 -4 19 0 35 8 68 35 237 69 368
74 72 2 159 11 195 20 43 10 84 13 122 9 58 -7 59 -6 131 43 150 104 292 147
452 138 197 -11 336 -72 528 -232 66 -55 80 -82 48 -93 -10 -3 -12 0 -8 12 4
11 3 15 -4 11 -5 -4 -22 6 -37 21 -44 44 -182 144 -242 174 -68 34 -170 60
-237 60 -54 0 -178 -33 -203 -55 -8 -7 -35 -23 -60 -35 -25 -13 -71 -43 -103
-68 -51 -40 -60 -44 -82 -34 -16 7 -26 8 -30 1 -4 -5 -3 -9 2 -8 19 3 33 -2
33 -12 0 -6 -7 -8 -16 -5 -8 3 -13 2 -10 -2 2 -4 1 -14 -3 -21 -7 -10 -13 -10
-29 -2 -13 7 -56 10 -108 7 -54 -2 -103 2 -131 10 -36 11 -76 12 -202 3 -86
-5 -166 -14 -179 -20 -13 -5 -38 -9 -57 -9 -19 0 -35 -5 -35 -11 0 -6 -6 -9
-14 -6 -7 3 -17 2 -22 -3 -5 -4 -40 -20 -79 -36 -75 -29 -168 -81 -173 -95 -2
-5 -8 -9 -14 -9 -12 0 -94 -57 -126 -87 -12 -13 -28 -23 -34 -23 -5 0 -8 -7
-5 -14 4 -10 1 -13 -9 -9 -7 3 -14 1 -14 -4 0 -5 -17 -27 -37 -48 -47 -50
-123 -143 -123 -151 0 -3 -11 -20 -25 -38 -14 -18 -25 -36 -25 -40 0 -3 -13
-25 -30 -48 -16 -22 -30 -49 -30 -58 0 -10 -7 -23 -15 -30 -9 -7 -14 -19 -11
-26 4 -10 0 -11 -20 -2 -23 11 -29 7 -89 -58 -35 -38 -79 -90 -96 -116 -58
-82 -146 -103 -201 -48 -32 33 -32 31 -2 155 10 39 40 101 92 185 42 69 88
145 101 170 165 308 364 608 501 755 37 39 38 42 44 140 4 55 11 116 16 135 5
19 14 56 21 82 13 53 33 78 50 61 8 -8 4 -30 -14 -75 -21 -52 -52 -243 -42
-256 1 -1 30 21 63 50 l61 52 -6 72 c-9 114 26 98 39 -18 l3 -27 53 35 c141
95 325 169 707 284 466 140 681 239 918 425 73 58 89 81 54 79 -9 0 -42 -1
-72 -2 l-55 -2 0 -40 c0 -50 -14 -52 -26 -2 l-9 37 -75 5 -75 5 -3 48 c-2 33
-7 47 -18 47 -7 0 -14 7 -14 15 0 8 7 15 14 15 11 0 16 14 18 48 l3 47 106 1
c99 1 109 3 141 28 44 33 48 33 48 -5 0 -24 3 -30 16 -25 9 3 36 6 60 6 41 0
44 2 44 26 0 18 -4 24 -13 21 -8 -3 -20 -1 -28 5 -11 8 -10 9 4 4 27 -9 20 12
-18 50 -34 34 -44 54 -26 54 5 0 36 -20 70 -45z m639 21 c3 -12 -1 -17 -10
-14 -7 3 -15 13 -16 22 -3 12 1 17 10 14 7 -3 15 -13 16 -22z m757 4 c3 -5 2
-10 -4 -10 -5 0 -13 5 -16 10 -3 6 -2 10 4 10 5 0 13 -4 16 -10z m-1775 -10
c0 -5 -9 -10 -20 -10 -11 0 -20 5 -20 10 0 6 9 10 20 10 11 0 20 -4 20 -10z
m6682 -37 c44 -43 48 -51 48 -95 0 -49 -32 -152 -56 -177 -11 -12 -12 3 -7 90
l5 104 -38 37 -39 36 -245 -24 c-135 -13 -254 -26 -265 -30 -11 -3 -34 -22
-51 -42 -31 -36 -32 -39 -43 -197 -12 -166 -36 -503 -47 -660 l-6 -90 32 -37
31 -38 268 0 267 0 36 38 c35 35 37 42 47 134 6 54 10 135 10 180 -2 77 -2 74
-10 -42 -5 -69 -11 -140 -14 -157 l-6 -33 -199 0 -200 0 0 60 c0 70 38 620 46
668 3 22 13 36 28 42 30 11 222 30 309 30 l69 0 -5 -147 c-2 -82 -3 -129 0
-105 2 23 8 42 13 42 35 0 43 -127 26 -407 -16 -260 -14 -254 -103 -328 l-45
-38 -284 5 -283 5 -20 24 c-72 86 -71 81 -60 228 5 73 8 136 5 139 -4 3 -6 -7
-6 -21 0 -28 -14 -37 -23 -14 -10 25 27 446 41 459 9 10 12 1 13 -42 1 -30 7
18 13 106 11 150 13 164 39 201 64 92 55 89 317 116 129 14 260 25 290 26 52
1 56 -1 102 -46z m-4882 17 c0 -5 -2 -10 -4 -10 -3 0 -8 5 -11 10 -3 6 -1 10
4 10 6 0 11 -4 11 -10z m-755 -10 c3 -5 1 -10 -4 -10 -6 0 -11 5 -11 10 0 6 2
10 4 10 3 0 8 -4 11 -10z m534 -59 c9 -6 10 -11 2 -15 -13 -8 -31 1 -31 15 0
11 11 11 29 0z m-3220 -15 c14 -17 4 -46 -15 -46 -18 0 -28 24 -20 45 7 19 20
19 35 1z m-336 -91 c-7 -21 -13 -19 -13 6 0 11 4 18 10 14 5 -3 7 -12 3 -20z
m4021 -81 c3 -9 6 -49 6 -91 0 -66 -2 -75 -20 -80 -14 -4 -20 -14 -20 -32 1
-22 2 -24 11 -8 20 33 29 16 29 -54 l0 -71 -27 7 c-31 7 -44 22 -36 42 8 20
21 16 26 -9 3 -14 5 -8 6 15 1 31 -2 37 -16 35 -16 -3 -18 6 -18 77 0 59 3 79
13 78 8 -2 12 12 12 45 0 27 3 52 7 55 11 11 20 8 27 -9z m121 6 c3 -5 1 -10
-4 -10 -6 0 -11 5 -11 10 0 6 2 10 4 10 3 0 8 -4 11 -10z m-4568 -142 c3 -116
-3 -145 -30 -135 -12 5 -16 25 -16 98 -1 105 14 178 32 160 6 -6 12 -58 14
-123z m4773 7 c0 -52 -4 -95 -8 -95 -5 0 -9 43 -9 95 -1 52 3 95 8 95 5 0 9
-43 9 -95z m3521 26 c-18 -24 -21 -44 -21 -118 0 -49 -5 -139 -12 -199 -13
-127 -14 -170 -4 -204 8 -25 7 -25 -19 4 -29 32 -29 6 -4 316 13 169 15 180
47 218 32 39 43 25 13 -17z m-7874 -23 c-2 -13 -4 -3 -4 22 0 25 2 35 4 23 2
-13 2 -33 0 -45z m-889 -9 c-2 -19 -7 -33 -13 -32 -14 3 -18 29 -10 60 9 37
27 14 23 -28z m1822 -34 c0 -7 -5 -17 -11 -21 -16 -9 -43 21 -36 41 5 13 11
14 27 5 11 -6 20 -17 20 -25z m70 20 c18 -22 3 -55 -26 -55 -13 0 -24 2 -24 4
0 2 -3 11 -6 19 -5 14 19 47 35 47 5 0 14 -7 21 -15z m74 9 c21 -8 21 -53 0
-61 -37 -14 -64 38 -31 59 15 9 12 9 31 2z m-1075 -61 c0 -42 -1 -45 -10 -23
-9 23 -5 70 6 70 3 0 5 -21 4 -47z m8861 26 c0 -18 -2 -19 -15 -9 -8 7 -15 16
-15 21 0 5 7 9 15 9 9 0 15 -9 15 -21z m-9750 -143 c0 -115 -4 -133 -25 -116
-8 7 -11 41 -8 112 5 114 8 132 23 123 6 -4 10 -54 10 -119z m2660 114 c0 -11
-60 -44 -67 -36 -12 12 8 35 34 39 15 2 29 5 31 6 1 0 2 -3 2 -9z m5996 -48
c-1 -20 -4 -36 -8 -34 -5 1 -13 2 -19 2 -6 0 -9 9 -6 19 2 10 1 25 -4 32 -4 8
-3 19 3 26 17 21 35 -2 34 -45z m1124 -33 c0 -5 -7 -9 -15 -9 -15 0 -20 12 -9
23 8 8 24 -1 24 -14z m4 -25 c9 -3 13 -10 10 -15 -2 -5 0 -18 6 -29 6 -11 8
-20 4 -20 -10 0 -43 44 -44 58 0 14 2 14 24 6z m-8904 -24 c-6 -11 -18 -20
-27 -20 -14 0 -14 2 2 20 10 11 22 20 27 20 5 0 4 -9 -2 -20z m74 2 c2 -4 1
-14 -4 -22 -7 -11 -12 -12 -21 -3 -6 6 -8 16 -5 22 8 13 23 14 30 3z m1769 1
c-7 -2 -19 -2 -25 0 -7 3 -2 5 12 5 14 0 19 -2 13 -5z m-2259 -29 c10 -40 5
-456 -5 -477 -14 -25 -240 -207 -251 -201 -26 16 -1 50 102 135 l110 91 0 232
c0 128 3 236 7 239 14 15 31 6 37 -19z m4771 -34 c-3 -5 -12 -7 -20 -3 -21 7
-19 13 6 13 11 0 18 -4 14 -10z m-548 -11 c8 -8 4 -22 -15 -50 -44 -67 -73
-41 -31 27 22 37 29 40 46 23z m3473 -65 c6 -14 10 -53 10 -87 0 -58 -5 -73
-76 -210 -50 -97 -83 -151 -97 -157 -22 -9 -322 -80 -338 -80 -14 0 -11 38 4
47 6 4 81 23 166 43 l155 36 73 139 c72 138 73 141 67 197 -9 86 14 132 36 72z
m-8160 -112 c0 -107 -8 -141 -29 -128 -15 10 -15 218 1 234 22 22 28 0 28
-106z m7405 82 c0 -16 -8 -20 -49 -22 -59 -4 -78 2 -70 23 14 37 119 36 119
-1z m-530 -19 c0 -17 -8 -20 -54 -23 -63 -4 -87 11 -56 34 13 9 37 14 65 12
37 -3 45 -6 45 -23z m1757 -47 c-15 -15 -26 -4 -18 18 5 13 9 15 18 6 9 -9 9
-15 0 -24z m-4382 12 c0 -5 -7 -10 -15 -10 -8 0 -15 5 -15 10 0 6 7 10 15 10
8 0 15 -4 15 -10z m-270 -10 c0 -5 -17 -10 -37 -10 -21 0 -48 -3 -61 -6 -18
-5 -21 -3 -16 10 5 12 20 16 60 16 30 0 54 -4 54 -10z m-2401 -36 c-6 -8 -15
-14 -20 -14 -14 0 -11 28 4 33 20 7 29 -4 16 -19z m-79 -44 c0 -5 -4 -10 -10
-10 -5 0 -10 5 -10 10 0 6 5 10 10 10 6 0 10 -4 10 -10z m-60 -20 c0 -24 -26
-38 -42 -22 -16 16 -2 42 22 42 13 0 20 -7 20 -20z m-1446 -87 c4 -9 0 -23 -8
-32 -14 -13 -16 -13 -22 2 -7 20 1 47 15 47 5 0 12 -8 15 -17z m3793 -25 c-3
-8 -6 -5 -6 6 -1 11 2 17 5 13 3 -3 4 -12 1 -19z m-2893 -38 c-1 -14 -7 -83
-14 -155 -8 -84 -10 -180 -5 -272 6 -133 5 -142 -13 -152 -39 -21 -42 -2 -42
304 0 161 3 295 7 299 4 4 21 6 38 4 25 -2 30 -7 29 -28z m7876 -60 c9 -17 8
-20 -9 -20 -22 0 -35 15 -26 30 10 16 23 12 35 -10z m-5130 -20 c0 -5 -4 -10
-10 -10 -5 0 -10 5 -10 10 0 6 5 10 10 10 6 0 10 -4 10 -10z m5140 -30 c0 -5
-9 -14 -20 -20 -15 -8 -20 -8 -20 3 0 8 3 17 7 20 10 10 33 8 33 -3z m-9090
-66 c0 -32 -4 -44 -12 -42 -14 5 -23 51 -14 74 11 30 26 12 26 -32z m9098 -3
c-4 -20 -48 -28 -48 -9 0 20 20 37 37 31 8 -3 13 -13 11 -22z m-9310 -64 c12
-18 22 -44 22 -58 0 -23 -1 -23 -16 6 -8 16 -22 37 -30 46 -15 17 -19 39 -6
39 4 0 17 -15 30 -33z m9309 7 c3 -8 0 -21 -6 -27 -10 -9 -16 -8 -27 7 -8 11
-14 23 -14 28 0 15 41 8 47 -8z m-5147 -4 c0 -5 -4 -10 -10 -10 -5 0 -10 5
-10 10 0 6 5 10 10 10 6 0 10 -4 10 -10z m-3492 -26 c2 -13 -20 -38 -72 -82
l-76 -62 -2 -223 c-3 -214 -4 -222 -23 -222 -19 0 -20 8 -23 236 l-2 235 87
72 c49 39 93 70 98 68 6 -1 11 -11 13 -22z m-335 -121 c5 -9 2 -13 -11 -13
-11 0 -38 21 -61 46 -25 28 -41 40 -41 30 0 -9 -7 -16 -15 -16 -22 0 -20 48 3
52 16 4 105 -67 125 -99z m8966 98 c16 -10 6 -51 -14 -51 -16 0 -26 25 -19 45
7 17 13 18 33 6z m-1243 -58 c-6 -6 -56 20 -56 29 0 5 13 1 30 -8 16 -10 28
-19 26 -21z m1250 -32 c-8 -13 -36 -15 -36 -3 0 4 5 13 12 20 14 14 34 0 24
-17z m-1217 9 c10 -5 22 -17 25 -27 5 -13 0 -11 -21 7 -15 14 -30 26 -32 28
-13 7 13 0 28 -8z m1225 -49 c9 -15 -18 -31 -34 -20 -13 8 -13 10 0 19 19 12
27 12 34 1z m-9083 -14 c43 -6 46 -12 37 -79 -29 -229 -37 -391 -20 -402 5 -3
24 -1 43 3 52 14 159 22 159 13 0 -10 -17 -19 -130 -65 -99 -40 -154 -51 -184
-35 -12 6 -48 14 -81 17 -33 3 -60 11 -61 16 -4 81 -19 201 -30 244 -14 53
-17 260 -4 281 10 16 178 20 271 7z m2040 -30 c-8 -8 -11 -7 -11 4 0 20 13 34
18 19 3 -7 -1 -17 -7 -23z m5010 -20 c-13 -13 -26 -3 -16 12 3 6 11 8 17 5 6
-4 6 -10 -1 -17z m129 -27 c0 -5 -7 -10 -16 -10 -8 0 -12 5 -9 10 3 6 10 10
16 10 5 0 9 -4 9 -10z m1936 -35 c1 -45 -6 -55 -35 -54 -14 1 -30 1 -36 -1
-27 -7 -34 2 -32 37 2 33 6 39 32 44 55 12 70 7 71 -26z m-6316 -33 c0 -14
-11 -21 -26 -15 -21 8 -17 23 6 23 11 0 20 -4 20 -8z m-3292 -70 c-5 -39 -26
-38 -43 2 -21 50 -19 56 16 39 24 -12 29 -21 27 -41z m8542 48 c0 -5 -4 -10
-10 -10 -5 0 -10 5 -10 10 0 6 5 10 10 10 6 0 10 -4 10 -10z m-55 -58 c-2 -3
0 -14 6 -26 7 -15 2 -12 -17 9 -15 17 -31 29 -36 28 -4 -2 -8 4 -8 13 0 13 4
13 30 -2 16 -10 27 -20 25 -22z m-8877 -11 c7 -20 -34 5 -42 25 -6 15 -4 15
16 2 12 -8 24 -20 26 -27z m8550 6 c29 -7 50 -15 47 -18 -3 -4 7 -6 22 -6 32
-1 103 -24 103 -35 0 -3 18 -9 40 -13 22 -4 38 -10 36 -14 -3 -4 3 -8 12 -9
46 -4 64 -9 70 -18 4 -5 26 -18 49 -29 26 -12 41 -25 38 -33 -3 -7 -1 -11 4
-7 5 3 15 0 23 -7 7 -7 47 -42 88 -77 183 -157 289 -311 340 -492 24 -88 25
-144 5 -193 -9 -20 -13 -41 -10 -46 3 -5 1 -11 -5 -15 -5 -3 -10 1 -10 9 0 8
-10 16 -21 18 -26 4 -36 20 -44 71 -4 23 -10 35 -17 31 -6 -4 -8 1 -3 15 4 15
2 21 -9 21 -16 0 -31 34 -22 49 4 5 3 11 -2 13 -9 4 -84 115 -97 145 -11 24
-135 157 -147 158 -4 0 -13 7 -20 16 -42 50 -177 118 -268 136 -16 3 -30 8
-30 12 0 4 -41 13 -91 21 -98 14 -269 9 -329 -11 -34 -10 -45 -14 -103 -38
-16 -6 -33 -9 -38 -6 -5 4 -9 1 -9 -4 0 -6 -7 -11 -15 -11 -18 0 -20 26 -3 36
6 4 28 11 47 15 20 4 45 10 56 13 11 3 37 10 58 15 51 12 54 17 12 18 -19 1
-35 -2 -35 -7 0 -4 -22 -10 -50 -12 -30 -3 -65 -15 -90 -32 -22 -14 -46 -26
-55 -26 -8 0 -15 -4 -15 -10 0 -5 -5 -10 -10 -10 -13 0 -207 -127 -216 -141
-9 -16 5 -24 18 -11 7 7 19 12 27 12 8 0 -22 -36 -67 -80 -45 -44 -84 -80 -88
-80 -3 0 -23 -18 -44 -40 -21 -22 -42 -40 -47 -40 -6 0 -26 -16 -46 -35 -34
-33 -56 -36 -36 -5 16 27 10 31 -22 14 -23 -11 -30 -21 -26 -35 4 -16 2 -19
-16 -14 -17 5 -18 4 -8 -4 13 -8 11 -13 -10 -30 -13 -12 -35 -24 -49 -28 -14
-3 -34 -12 -45 -19 -11 -7 -42 -20 -70 -29 -53 -17 -97 -36 -105 -46 -11 -13
-140 -68 -215 -91 -157 -49 -350 -94 -469 -109 -43 -5 -82 -12 -87 -14 -4 -3
-10 -1 -13 4 -4 5 2 12 11 14 14 4 13 5 -4 6 -12 0 -29 -6 -38 -15 -11 -11
-26 -15 -48 -11 -40 6 -89 -2 -81 -14 8 -13 -10 -11 -24 3 -8 8 -38 12 -79 10
-44 -1 -70 3 -75 11 -6 9 -10 9 -20 -1 -6 -6 -22 -12 -35 -12 -13 0 -23 -6
-23 -12 0 -7 -5 -5 -11 5 -10 17 -12 17 -29 2 -17 -16 -38 -6 -26 13 2 4 1 14
-5 22 -6 11 -9 8 -9 -12 l0 -27 -179 -1 c-99 0 -187 -3 -196 -7 -10 -3 -21 0
-26 8 -7 11 -9 11 -9 -3 0 -26 -26 -22 -35 5 l-8 22 -4 -22 c-3 -17 -11 -23
-31 -23 -20 0 -23 3 -14 12 14 14 16 28 3 28 -5 0 -14 -13 -20 -30 -11 -34
-10 -34 -46 -20 -22 8 -24 13 -15 30 6 11 18 20 26 20 8 0 12 -4 9 -10 -3 -5
-1 -10 4 -10 6 0 11 4 11 9 0 14 -23 27 -55 30 -16 2 -35 10 -42 19 -8 12 -12
13 -13 4 0 -8 -10 -11 -27 -8 -16 2 -35 5 -43 5 -12 1 -13 3 -1 10 9 6 -3 11
-38 16 -50 7 -72 25 -30 25 37 0 10 18 -47 31 -57 13 -72 23 -53 35 8 4 9 3 5
-4 -9 -15 28 -16 55 -2 11 7 19 7 19 1 0 -5 -4 -11 -10 -13 -5 -1 14 -4 43 -5
36 -2 47 1 37 7 -12 8 -11 10 5 10 11 0 28 -9 38 -20 9 -11 26 -20 37 -20 12
0 20 -7 20 -17 0 -16 10 -18 77 -16 43 1 150 3 238 4 186 3 517 31 495 42 -8
4 4 5 28 2 23 -3 42 -1 42 3 0 5 39 14 88 21 406 60 742 231 1222 625 191 157
218 178 285 223 140 94 283 157 425 187 81 18 288 19 358 3z m-3030 -99 c3
-14 -4 -18 -31 -18 -47 0 -67 9 -60 26 8 22 87 15 91 -8z m-2042 -62 c22 -17
11 -35 -13 -20 -19 12 -29 34 -16 34 5 0 18 -6 29 -14z m-3168 -43 c-4 -19
-39 -30 -110 -35 -94 -6 -61 30 42 46 58 8 72 6 68 -11z m5243 -13 c20 -11 27
-50 9 -50 -5 0 -10 4 -10 9 0 5 -8 8 -17 7 -12 0 -19 7 -21 22 -4 24 9 28 39
12z m-56 -90 c3 -5 1 -10 -4 -10 -6 0 -11 5 -11 10 0 6 2 10 4 10 3 0 8 -4 11
-10z m90 -10 c17 -7 14 -9 -13 -9 -20 -1 -31 3 -27 9 7 12 13 12 40 0z m-2827
-90 c22 -1 24 -2 11 -10 -9 -5 -20 -22 -24 -37 -3 -16 -25 -52 -47 -82 l-41
-54 6 -142 c4 -78 14 -164 22 -193 12 -39 13 -57 5 -72 -6 -11 -12 -20 -15
-20 -8 0 -84 211 -109 303 l-26 99 40 74 c22 41 40 76 40 78 0 13 -36 13 -71
1 -89 -32 -54 -7 41 29 70 27 107 35 128 30 8 -2 26 -4 40 -4z m-1291 -26 c8
-22 -15 -43 -27 -24 -5 8 -10 21 -10 28 0 17 30 15 37 -4z m6517 -9 c-25 -19
-38 -19 -22 0 7 8 19 14 27 15 11 0 9 -4 -5 -15z m486 -5 c0 -5 -2 -10 -4 -10
-3 0 -8 5 -11 10 -3 6 -1 10 4 10 6 0 11 -4 11 -10z m-540 -30 c0 -5 -4 -10
-10 -10 -5 0 -10 5 -10 10 0 6 5 10 10 10 6 0 10 -4 10 -10z m-2412 -62 c61
-6 112 -15 112 -20 0 -4 -7 -8 -15 -8 -30 0 -211 30 -240 40 l-30 10 30 -5
c17 -3 81 -10 143 -17z m-4318 -16 c0 -4 -8 -8 -18 -9 -9 -1 -22 -2 -27 -3
-21 -5 -36 0 -30 10 7 12 75 14 75 2z m4653 -9 c-7 -2 -19 -2 -25 0 -7 3 -2 5
12 5 14 0 19 -2 13 -5z m2163 -12 c-16 -18 -16 -18 10 -13 l26 5 -7 -74 c-3
-41 -8 -81 -11 -91 -9 -30 146 -295 166 -283 4 2 15 -4 25 -15 10 -11 14 -20
9 -20 -5 0 1 -7 13 -15 20 -14 58 -93 49 -102 -19 -19 -288 242 -318 307 -8
19 -19 71 -22 115 -4 44 -9 82 -12 84 -7 8 -46 -33 -71 -76 -38 -65 -39 -51
-1 20 31 58 133 177 153 177 4 0 0 -8 -9 -19z m-3850 -66 c9 -8 12 -19 9 -25
-3 -6 4 -10 18 -10 13 0 35 -11 48 -23 13 -13 33 -29 44 -35 17 -10 17 -11 3
-12 -11 0 -15 -5 -12 -15 4 -8 -1 -17 -10 -21 -9 -3 -16 -14 -17 -23 0 -13 -2
-13 -6 -1 -3 8 -14 24 -23 35 -27 29 -90 126 -90 136 0 14 20 11 36 -6z
m-2096 -72 c-1 -5 -8 -19 -16 -33 -8 -14 -13 -17 -10 -7 3 10 6 25 6 33 0 8 5
14 10 14 6 0 10 -3 10 -7z m-650 -33 c0 -5 -5 -12 -11 -16 -14 -8 -33 11 -25
25 7 11 36 4 36 -9z m5430 -46 c0 -8 -7 -14 -15 -14 -8 0 -15 -4 -15 -8 0 -4
-12 -9 -26 -10 -35 -3 -44 -10 -44 -33 0 -10 -7 -19 -15 -19 -16 0 -19 10 -7
26 4 5 -1 1 -10 -9 -10 -11 -19 -14 -23 -7 -3 6 -11 8 -16 4 -5 -3 -7 -9 -5
-12 2 -4 -7 -12 -20 -19 -15 -7 -24 -7 -24 -1 0 6 -13 7 -31 3 -29 -7 -30 -6
-20 14 7 12 18 21 26 21 14 0 200 82 212 93 9 9 33 -12 33 -29z m-6652 -20 c2
-11 -4 -32 -11 -47 l-15 -28 -4 26 c-7 35 2 77 16 72 6 -2 12 -12 14 -23z
m-118 1 c0 -8 7 -15 15 -15 8 0 15 -4 15 -10 0 -14 -39 -32 -56 -26 -14 5 -20
47 -7 59 12 13 33 7 33 -8z m1950 -24 c0 -6 -4 -13 -10 -16 -5 -3 -10 1 -10 9
0 9 5 16 10 16 6 0 10 -4 10 -9z m3916 -28 c-7 -7 -26 7 -26 19 0 6 6 6 15 -2
9 -7 13 -15 11 -17z m617 -18 c-3 -9 -8 -14 -10 -11 -3 3 -2 9 2 15 9 16 15
13 8 -4z m-6423 -33 c0 -4 -15 -16 -32 -26 l-33 -17 30 25 c33 29 35 30 35 18z
m4536 -48 c17 -19 38 -34 45 -34 8 0 25 -12 38 -25 12 -14 26 -23 31 -20 4 2
16 -2 26 -10 16 -11 17 -16 6 -27 -9 -9 -15 -10 -20 -2 -4 6 -16 13 -27 16
-11 3 -29 9 -39 14 -14 5 -17 4 -12 -4 5 -8 2 -10 -8 -6 -9 3 -16 10 -16 15 0
4 -7 6 -15 2 -9 -3 -24 2 -34 11 -10 9 -21 13 -24 10 -13 -14 -37 20 -37 52 0
26 4 34 18 34 15 0 15 2 2 11 -11 8 -9 9 9 3 14 -3 39 -22 57 -40z m-2776 32
c0 -3 -4 -8 -10 -11 -5 -3 -10 -1 -10 4 0 6 5 11 10 11 6 0 10 -2 10 -4z
m2875 -76 c3 -5 1 -10 -4 -10 -6 0 -11 5 -11 10 0 6 2 10 4 10 3 0 8 -4 11
-10z m392 -26 c-3 -3 -12 -4 -19 -1 -8 3 -5 6 6 6 11 1 17 -2 13 -5z m-3297
-203 c0 -11 -14 -29 -30 -41 -17 -12 -35 -30 -40 -40 -9 -16 -6 -22 17 -33 43
-22 103 -31 103 -15 0 21 29 -40 35 -76 6 -31 4 -34 -21 -39 -16 -3 -41 1 -56
9 -35 18 -128 108 -128 123 0 7 -5 9 -12 5 -8 -5 -9 2 -4 26 8 43 34 83 50 77
6 -3 25 1 41 8 41 18 45 18 45 -4z m5920 -78 c29 -88 51 -128 129 -238 77
-108 133 -161 227 -215 129 -74 260 -106 324 -80 17 7 46 14 63 15 133 8 196
20 251 46 119 57 214 147 314 297 35 50 67 92 72 92 5 0 7 -7 4 -15 -5 -11 0
-14 17 -13 18 2 24 -2 25 -20 1 -12 -3 -25 -7 -28 -5 -3 -9 -14 -9 -24 0 -10
-3 -20 -7 -22 -5 -2 -19 -23 -32 -48 -13 -25 -39 -61 -57 -80 -18 -19 -41 -44
-51 -56 -30 -34 -89 -74 -98 -66 -5 4 -5 2 -2 -4 14 -25 -195 -114 -316 -134
-95 -16 -292 -8 -340 14 -17 8 -43 18 -56 21 -14 4 -34 16 -45 26 -11 11 -26
19 -33 19 -23 0 -82 33 -76 43 4 6 -5 8 -20 5 -15 -3 -24 -1 -21 4 3 5 -3 12
-15 15 -12 3 -21 9 -21 14 0 5 -3 8 -8 7 -11 -4 -62 38 -55 46 3 3 -8 12 -25
19 -36 15 -132 94 -132 108 0 16 -44 54 -60 51 -15 -2 -54 69 -85 157 -18 51
-18 51 -6 51 12 0 71 -121 71 -145 0 -13 3 -15 13 -6 8 6 16 8 19 6 3 -3 3 6
0 20 -3 17 -9 24 -18 21 -17 -7 -17 14 -1 74 10 37 36 90 44 90 1 0 11 -30 23
-67z m450 -97 c0 -3 -4 -8 -10 -11 -5 -3 -10 -1 -10 4 0 6 5 11 10 11 6 0 10
-2 10 -4z m-30 -26 c0 -5 -4 -10 -10 -10 -5 0 -10 5 -10 10 0 6 5 10 10 10 6
0 10 -4 10 -10z m-6020 -120 c0 -19 -18 -19 -23 -1 -3 14 -1 18 9 14 8 -3 14
-9 14 -13z m6620 -58 c0 -5 -7 -9 -15 -9 -8 0 -15 4 -15 9 0 4 7 8 15 8 8 0
15 -4 15 -8z m-7373 -148 c-3 -3 -12 -4 -19 -1 -8 3 -5 6 6 6 11 1 17 -2 13
-5z m63 -24 c21 -7 19 -8 -15 -8 -22 0 -53 4 -70 8 -27 7 -25 8 15 8 25 0 56
-4 70 -8z m255 -9 c32 -2 36 -4 20 -11 -27 -12 -104 -13 -86 -1 8 5 -21 7 -73
4 -50 -4 -86 -2 -86 4 0 8 115 10 225 4z m6852 3 c-3 -3 -12 -4 -19 -1 -8 3
-5 6 6 6 11 1 17 -2 13 -5z m-6810 -30 c-3 -3 -12 -4 -19 -1 -8 3 -5 6 6 6 11
1 17 -2 13 -5z m8035 -254 c42 -84 64 -159 55 -183 -3 -9 -49 -48 -101 -88
-53 -39 -96 -76 -96 -82 0 -6 -3 -8 -6 -4 -8 8 -54 -42 -54 -59 0 -8 -5 -14
-11 -14 -14 0 -39 -26 -39 -40 0 -7 7 -10 15 -6 17 6 19 -2 6 -23 -5 -8 -16
-11 -26 -8 -9 4 -14 3 -10 -3 3 -6 -2 -13 -12 -17 -10 -3 -29 -18 -43 -32 -14
-15 -41 -37 -62 -49 -20 -12 -39 -29 -42 -37 -3 -8 -15 -15 -27 -15 -14 0 -19
5 -16 14 11 28 -61 -1 -140 -56 -43 -30 -105 -70 -138 -88 -33 -18 -79 -51
-103 -72 -24 -22 -50 -38 -59 -36 -9 2 -22 22 -29 48 -15 49 -82 129 -94 111
-10 -18 -106 7 -138 35 l-27 24 28 25 c15 14 39 25 52 25 14 0 30 9 37 21 7
11 47 41 88 67 94 58 286 185 324 214 44 33 90 64 224 150 68 43 178 119 245
169 77 57 128 89 141 87 14 -2 32 -26 58 -78z m-182 -450 c0 -5 -7 -10 -16
-10 -8 0 -12 5 -9 10 3 6 10 10 16 10 5 0 9 -4 9 -10z m510 -146 c20 -36 6
-53 -73 -92 l-66 -33 -21 21 c-11 11 -20 24 -20 28 0 22 118 102 151 102 9 0
22 -12 29 -26z"/>
<path d="M5490 4903 c0 -5 7 -18 15 -29 13 -18 14 -18 8 4 -5 22 -23 41 -23
25z"/>
<path d="M5025 4630 c-3 -5 1 -10 9 -10 9 0 16 5 16 10 0 6 -4 10 -9 10 -6 0
-13 -4 -16 -10z"/>
<path d="M4980 4593 c0 -25 1 -26 16 -11 9 9 13 21 10 27 -13 20 -26 11 -26
-16z"/>
<path d="M4514 4529 c-2 -4 -1 -20 2 -36 5 -26 9 -28 55 -30 l49 -1 0 33 c0
26 -3 33 -15 29 -8 -4 -15 -2 -15 4 0 11 -69 12 -76 1z"/>
<path d="M4715 4489 c-4 -6 -13 -8 -21 -5 -8 3 -14 0 -14 -7 0 -8 19 -13 51
-14 30 -1 49 2 47 8 -2 6 -8 11 -13 11 -6 0 -18 4 -27 9 -11 6 -19 5 -23 -2z"/>
<path d="M4863 4493 c-13 -2 -23 -11 -23 -18 0 -11 6 -12 30 -4 16 6 27 15 24
20 -3 5 -6 8 -7 8 -1 -1 -12 -4 -24 -6z"/>
<path d="M3420 3450 c0 -5 5 -10 10 -10 6 0 10 5 10 10 0 6 -4 10 -10 10 -5 0
-10 -4 -10 -10z"/>
<path d="M2480 2510 c0 -5 7 -7 15 -4 8 4 15 8 15 10 0 2 -7 4 -15 4 -8 0 -15
-4 -15 -10z"/>
<path d="M11038 4509 c-47 -5 -124 -10 -170 -11 l-83 -3 -22 -345 c-12 -190
-22 -353 -22 -362 -1 -17 13 -18 167 -18 92 0 172 4 178 8 11 7 15 50 34 402
5 96 12 212 16 258 3 45 2 81 -3 81 -4 -1 -47 -5 -95 -10z m78 -76 c-3 -32
-11 -146 -17 -253 -6 -107 -14 -235 -18 -285 l-6 -89 -152 -3 -153 -3 0 37 c0
35 7 159 29 496 5 70 11 130 14 133 5 5 167 19 270 23 l39 1 -6 -57z"/>
<path d="M10912 4440 c-34 -4 -64 -9 -67 -12 -3 -2 -11 -119 -20 -259 -8 -140
-17 -270 -20 -290 l-5 -36 88 -7 c110 -8 151 -1 156 28 3 11 9 120 16 241 6
121 14 248 17 283 l6 62 -54 -1 c-30 -1 -82 -5 -117 -9z m131 -75 c-7 -169
-24 -453 -28 -471 -4 -20 -13 -22 -87 -26 -46 -3 -87 -1 -92 3 -7 6 3 242 20
461 l6 77 52 3 c28 2 69 3 91 3 l40 0 -2 -50z"/>
<path d="M10906 4358 c-5 -14 -26 -362 -26 -415 0 -33 0 -33 50 -33 28 0 50 3
50 8 0 23 21 337 26 390 l6 62 -52 0 c-32 0 -52 -5 -54 -12z m58 -155 c-11
-202 -17 -237 -38 -241 -17 -4 -18 2 -12 110 13 227 16 248 37 248 18 0 19 -6
13 -117z"/>
<path d="M10433 4215 c0 -27 2 -38 4 -22 2 15 2 37 0 50 -2 12 -4 0 -4 -28z"/>
<path d="M11153 4145 c0 -38 2 -53 4 -32 2 20 2 52 0 70 -2 17 -4 1 -4 -38z"/>
<path d="M10423 4050 c0 -25 2 -35 4 -22 2 12 2 32 0 45 -2 12 -4 2 -4 -23z"/>
<path d="M1190 3071 c-15 -29 -12 -52 8 -67 16 -13 16 -14 -5 -20 -32 -9 -46
-57 -28 -100 13 -32 17 -34 63 -34 65 0 98 31 88 85 -4 20 -14 38 -22 41 -50
15 -48 13 -30 32 9 10 16 26 16 36 0 43 -70 64 -90 27z"/>
<path d="M9088 2763 c6 -2 18 -2 25 0 6 3 1 5 -13 5 -14 0 -19 -2 -12 -5z"/>
<path d="M8273 2503 c-7 -3 -13 -11 -13 -19 0 -8 -4 -14 -10 -14 -5 0 -10 -6
-10 -14 0 -7 -16 -21 -35 -30 -19 -9 -35 -22 -35 -28 0 -6 -3 -8 -7 -5 -9 9
-53 -33 -53 -50 0 -22 20 -14 30 12 5 14 15 22 23 20 7 -3 22 4 34 15 12 11
25 20 28 20 15 0 68 76 63 89 -2 4 -9 6 -15 4z"/>
<path d="M8055 2280 c4 -6 11 -8 16 -5 14 9 11 15 -7 15 -8 0 -12 -5 -9 -10z"/>
<path d="M9781 2224 c0 -11 3 -14 6 -6 3 7 2 16 -1 19 -3 4 -6 -2 -5 -13z"/>
<path d="M6783 1993 c9 -2 23 -2 30 0 6 3 -1 5 -18 5 -16 0 -22 -2 -12 -5z"/>
<path d="M5140 2020 c0 -5 5 -10 10 -10 6 0 10 5 10 10 0 6 -4 10 -10 10 -5 0
-10 -4 -10 -10z"/>
<path d="M9953 451 c-10 -10 -28 -24 -40 -30 -13 -6 -23 -21 -23 -32 0 -15 -5
-19 -15 -15 -20 7 -19 -11 1 -22 13 -7 29 2 71 44 30 29 52 58 48 64 -9 15
-22 12 -42 -9z"/>
<path d="M0 940 l0 -940 1280 0 c704 0 1280 3 1280 8 -1 4 -19 20 -41 37 -22
17 -51 39 -64 50 -13 11 -34 29 -47 39 -56 47 -486 424 -593 521 -44 39 -102
91 -130 115 -27 24 -52 46 -55 49 -3 4 -18 17 -35 30 -16 12 -46 37 -65 54
-41 38 -225 195 -295 252 -78 65 -120 100 -125 106 -3 3 -21 15 -41 27 -19 12
-44 31 -55 43 -22 24 -171 137 -254 191 -131 86 -336 189 -515 260 -55 22
-113 46 -130 54 -16 7 -49 20 -72 28 l-43 15 0 -939z"/>
</g>
</svg>
